<svg width="35" height="35" viewBox="0 0 35 35" fill="none" xmlns="http://www.w3.org/2000/svg">
<g clip-path="url(#clip0_83_152)">
<path d="M13.1251 32.0833C13.9305 32.0833 14.5834 31.4304 14.5834 30.625C14.5834 29.8196 13.9305 29.1667 13.1251 29.1667C12.3197 29.1667 11.6667 29.8196 11.6667 30.625C11.6667 31.4304 12.3197 32.0833 13.1251 32.0833Z" stroke="#F5F5F5" stroke-width="4" stroke-linecap="round" stroke-linejoin="round"/>
<path d="M29.1666 32.0833C29.972 32.0833 30.6249 31.4304 30.6249 30.625C30.6249 29.8196 29.972 29.1667 29.1666 29.1667C28.3612 29.1667 27.7083 29.8196 27.7083 30.625C27.7083 31.4304 28.3612 32.0833 29.1666 32.0833Z" stroke="#F5F5F5" stroke-width="4" stroke-linecap="round" stroke-linejoin="round"/>
<path d="M1.45825 1.45834H7.29158L11.1999 20.9854C11.3333 21.6568 11.6985 22.26 12.2318 22.6892C12.765 23.1184 13.4322 23.3465 14.1166 23.3333H28.2916C28.976 23.3465 29.6432 23.1184 30.1764 22.6892C30.7096 22.26 31.0749 21.6568 31.2082 20.9854L33.5416 8.75001H8.74992" stroke="#F5F5F5" stroke-width="4" stroke-linecap="round" stroke-linejoin="round"/>
</g>
<defs>
<clipPath id="clip0_83_152">
<rect width="35" height="35" fill="white"/>
</clipPath>
</defs>
</svg>
